<svg xmlns="http://www.w3.org/2000/svg" version="1.1" xmlns:xlink="http://www.w3.org/1999/xlink" xmlns:svgjs="http://svgjs.dev/svgjs" width="1500" height="935" viewBox="0 0 1500 935"><g transform="matrix(1,0,0,1,-0.9090909090909918,163.58665562507667)"><svg viewBox="0 0 396 247" data-background-color="#ffffff" preserveAspectRatio="xMidYMid meet" height="935" width="1500" xmlns="http://www.w3.org/2000/svg" xmlns:xlink="http://www.w3.org/1999/xlink"><g id="tight-bounds" transform="matrix(1,0,0,1,0.2400000000000091,-0.09999999999999432)"><svg viewBox="0 0 395.52 247.2" height="247.2" width="395.52"><g><svg></svg></g><g><svg viewBox="0 0 395.52 247.2" height="247.2" width="395.52"><g transform="matrix(1,0,0,1,75.54432,73.91696561771928)"><svg viewBox="0 0 244.43135999999998 99.36606876456142" height="99.36606876456142" width="244.43135999999998"><g><svg viewBox="0 0 244.43135999999998 99.36606876456142" height="99.36606876456142" width="244.43135999999998"><g transform="matrix(1,0,0,1,0,53.986306480183686)"><svg viewBox="0 0 244.43135999999998 45.37976228437774" height="45.37976228437774" width="244.43135999999998"><g id="textblocktransform"><svg viewBox="0 0 244.43135999999998 45.37976228437774" height="45.37976228437774" width="244.43135999999998" id="textblock"><g><svg viewBox="0 0 244.43135999999998 45.37976228437774" height="45.37976228437774" width="244.43135999999998"><g transform="matrix(1,0,0,1,0,0)"><svg width="244.43135999999998" viewBox="4 -36.01 250.5 46.51" height="45.37976228437774" data-palette-color="#000000"><path d="M26.49-14.99L9.5-14.99Q8.47-14.99 7.56-15.39 6.64-15.8 5.96-16.47 5.27-17.14 4.88-18.05 4.49-18.97 4.49-20L4.49-20 4.49-30Q4.49-31.03 4.88-31.95 5.27-32.86 5.96-33.53 6.64-34.2 7.56-34.61 8.47-35.01 9.5-35.01L9.5-35.01 26.49-35.01Q27.51-35.01 28.43-34.61 29.35-34.2 30.03-33.53 30.71-32.86 31.1-31.95 31.49-31.03 31.49-30L31.49-30 31.49-25.49 26.49-25.49 26.49-30 9.5-30 9.5-20 26.49-20Q27.51-20 28.43-19.6 29.35-19.21 30.03-18.53 30.71-17.85 31.1-16.93 31.49-16.02 31.49-14.99L31.49-14.99 31.49-5Q31.49-3.98 31.1-3.06 30.71-2.15 30.03-1.46 29.35-0.78 28.43-0.39 27.51 0 26.49 0L26.49 0 9.01 0Q7.98 0 7.07-0.39 6.15-0.78 5.47-1.46 4.79-2.15 4.39-3.06 4-3.98 4-5L4-5 4-9.5 9.01-9.5 9.01-5 26.49-5 26.49-14.99ZM63.01-21.19L63.01 0 58.2 0 58.2-21.19 44.8-21.19 44.8 0 40.01 0 40.01-36.01 44.8-36.01 44.8-21.41Q44.85-22.36 45.24-23.21 45.63-24.05 46.27-24.67 46.92-25.29 47.78-25.65 48.63-26 49.61-26L49.61-26 58.2-26Q59.2-26 60.08-25.62 60.96-25.24 61.61-24.6 62.25-23.95 62.63-23.07 63.01-22.19 63.01-21.19L63.01-21.19ZM93.5-21.19L93.5-4.81Q93.5-3.81 93.12-2.93 92.74-2.05 92.1-1.4 91.45-0.76 90.58-0.38 89.72 0 88.72 0L88.72 0 75.8 0Q74.82 0 73.95-0.38 73.07-0.76 72.42-1.4 71.77-2.05 71.39-2.93 71.02-3.81 71.02-4.81L71.02-4.81 71.02-21.19Q71.02-22.19 71.39-23.07 71.77-23.95 72.42-24.6 73.07-25.24 73.95-25.62 74.82-26 75.8-26L75.8-26 88.72-26Q89.72-26 90.58-25.62 91.45-25.24 92.1-24.6 92.74-23.95 93.12-23.07 93.5-22.19 93.5-21.19L93.5-21.19ZM88.72-21.19L75.8-21.19 75.8-4.81 88.72-4.81 88.72-21.19ZM123.5-21.19L123.5-10.55 106.29-10.55 106.29-4.81 123.5-4.81 123.5 0 106.29 0Q105.31 0 104.44-0.38 103.56-0.76 102.91-1.4 102.26-2.05 101.88-2.93 101.51-3.81 101.51-4.81L101.51-4.81 101.51-21.19Q101.51-22.19 101.88-23.07 102.26-23.95 102.91-24.6 103.56-25.24 104.44-25.62 105.31-26 106.29-26L106.29-26 118.69-26Q119.69-26 120.57-25.62 121.45-25.24 122.1-24.6 122.75-23.95 123.12-23.07 123.5-22.19 123.5-21.19L123.5-21.19ZM118.69-21.19L106.29-21.19 106.29-15.36 118.69-15.36 118.69-21.19ZM129.99-21.19L129.99-26 136.34-26 136.34-34.01 141.15-34.01 141.15-26 149.7-26 149.7-21.19 141.15-21.19 141.15-4.81 149.7-4.81 149.7 0 141.15 0Q140.18 0 139.3-0.38 138.42-0.76 137.76-1.4 137.1-2.05 136.72-2.93 136.34-3.81 136.34-4.81L136.34-4.81 136.34-21.19 129.99-21.19ZM180.19-21.19L180.19-4.81Q180.19-3.81 179.81-2.93 179.43-2.05 178.78-1.4 178.14-0.76 177.27-0.38 176.4 0 175.4 0L175.4 0 162.49 0Q161.51 0 160.63-0.38 159.75-0.76 159.11-1.4 158.46-2.05 158.08-2.93 157.7-3.81 157.7-4.81L157.7-4.81 157.7-21.19Q157.7-22.19 158.08-23.07 158.46-23.95 159.11-24.6 159.75-25.24 160.63-25.62 161.51-26 162.49-26L162.49-26 175.4-26Q176.4-26 177.27-25.62 178.14-25.24 178.78-24.6 179.43-23.95 179.81-23.07 180.19-22.19 180.19-21.19L180.19-21.19ZM175.4-21.19L162.49-21.19 162.49-4.81 175.4-4.81 175.4-21.19ZM211.19-21.19L211.19-4.81Q211.19-3.81 210.81-2.93 210.43-2.05 209.79-1.4 209.14-0.76 208.26-0.38 207.38 0 206.38 0L206.38 0 192.98 0 192.98 10.5 188.19 10.5 188.19-26 192.98-26 192.98-21.61Q193.05-22.53 193.47-23.33 193.88-24.12 194.52-24.72 195.15-25.32 195.99-25.66 196.84-26 197.79-26L197.79-26 206.38-26Q207.38-26 208.26-25.62 209.14-25.24 209.79-24.6 210.43-23.95 210.81-23.07 211.19-22.19 211.19-21.19L211.19-21.19ZM192.98-4.81L206.38-4.81 206.38-21.19 192.98-21.19 192.98-4.81ZM219.44-26L224.25-26 224.25 0 219.44 0 219.44-26ZM219.2-31.01L219.2-36.01 224.49-36.01 224.49-31.01 219.2-31.01ZM232.5-4.81L232.5-11.35Q232.5-12.35 232.88-13.22 233.26-14.09 233.9-14.75 234.55-15.41 235.43-15.78 236.31-16.16 237.28-16.16L237.28-16.16 249.69-16.16 249.69-21.19 233.99-21.19 233.99-26 249.69-26Q250.69-26 251.57-25.62 252.45-25.24 253.09-24.6 253.74-23.95 254.12-23.07 254.5-22.19 254.5-21.19L254.5-21.19 254.5 0 249.69 0 249.69-4.39Q249.61-3.49 249.2-2.69 248.78-1.88 248.14-1.28 247.49-0.68 246.66-0.34 245.83 0 244.9 0L244.9 0 237.28 0Q236.31 0 235.43-0.38 234.55-0.76 233.9-1.4 233.26-2.05 232.88-2.93 232.5-3.81 232.5-4.81L232.5-4.81ZM237.28-11.35L237.28-4.81 249.69-4.81 249.69-11.35 237.28-11.35Z" opacity="1" transform="matrix(1,0,0,1,0,0)" fill="#000000" class="wordmark-text-0" data-fill-palette-color="primary" id="text-0"></path></svg></g></svg></g></svg></g></svg></g><g transform="matrix(1,0,0,1,87.59251665469091,0)"><svg viewBox="0 0 69.24632669061818 43.273233719136925" height="43.273233719136925" width="69.24632669061818"><g><svg xmlns="http://www.w3.org/2000/svg" xmlns:xlink="http://www.w3.org/1999/xlink" version="1.1" x="0" y="0" viewBox="4.303343148667836 21.142 89.70465685133216 56.05800000000001" enable-background="new 0 0 100 100" xml:space="preserve" height="43.273233719136925" width="69.24632669061818" class="icon-icon-0" data-fill-palette-color="accent" id="icon-0"><g fill="#000000" data-fill-palette-color="accent"><circle cx="63.322" cy="34.112" r="0.68" fill="#000000" data-fill-palette-color="accent"></circle><circle cx="60.729" cy="37.055" r="0.68" fill="#000000" data-fill-palette-color="accent"></circle><path d="M93.995 66.35L93.991 66.313A3 3 0 0 0 93.966 66.139L93.964 66.127A2 2 0 0 0 93.923 65.954L93.913 65.919 93.863 65.762 93.851 65.731 93.793 65.588 93.787 65.573 93.72 65.435 93.704 65.404 93.636 65.281 93.62 65.257 93.552 65.149 93.545 65.139A2 2 0 0 0 93.457 65.014C93.435 64.983 93.411 64.954 93.39 64.927 93.386 64.92 93.381 64.917 93.377 64.911L93.317 64.839 93.311 64.833 93.268 64.784C93.58 63.832 93.711 62.103 93.749 60.244 93.866 57.886 93.787 55.471 93.585 53.107 93.58 53.019 93.577 52.943 93.572 52.884L93.576 52.881 93.562 52.722 93.542 52.439H93.535A65 65 0 0 0 93.029 48.432 95 95 0 0 0 90.338 36.211L90.288 36.037C90.231 35.62 90.121 35.303 89.979 35.058 89.791 34.566 89.364 34.293 88.754 34.293 88.692 34.293 88.629 34.296 88.568 34.301A2.5 2.5 0 0 0 87.732 34.491C87.265 34.55 86.769 34.581 86.255 34.581 84.394 34.581 82.439 34.191 80.683 33.685A39 39 0 0 1 74.991 31.476C75.347 26.457 65.887 21.786 65.34 21.52 64.924 21.269 64.538 21.142 64.192 21.142 63.895 21.142 63.717 21.236 63.659 21.274 60.888 22.824 59.731 26.211 59.539 26.836 58.22 27.693 58.319 29.103 58.414 29.635 55.849 30.991 54.874 35.527 54.698 36.466 54.12 36.625 53.663 36.881 53.325 37.224 52.913 37.554 52.747 38 52.703 38.438 52.571 39.14 52.729 39.826 52.847 40.194 52.345 40.387 51.828 40.889 51.636 41.091 50.223 41.212 49.457 42.882 49.306 43.244L47.601 44.614C45.822 44.551 45.142 45.815 44.968 46.227L41.988 47.261C41.956 47.255 41.924 47.253 41.891 47.248L41.885 47.238 41.843 47.233 41.749 47.229A3 3 0 0 0 41.404 47.208C40.13 47.208 39.402 47.958 39.207 48.188L36.346 49.19A2.6 2.6 0 0 0 35.825 49.134C34.663 49.134 34.052 49.989 33.88 50.277L30.943 51.373A2.3 2.3 0 0 0 30.263 51.266C29.046 51.266 28.357 52.315 28.194 52.596 27.473 53.052 27.374 54.006 27.368 54.434 22.047 55.805 9.78 56.389 9.656 56.393L9.626 56.4C6.215 56.98 5.747 61.046 5.683 62.027H5.682A1 1 0 0 0 5.502 62.093C5.497 62.097 5.491 62.099 5.487 62.101A1.2 1.2 0 0 0 5.187 62.32C5.181 62.328 5.174 62.334 5.168 62.34A1 1 0 0 0 5.059 62.473L5.042 62.494A2 2 0 0 0 4.936 62.664C4.908 62.717 4.881 62.768 4.857 62.823L4.848 62.846C4.825 62.903 4.802 62.959 4.782 63.016L4.777 63.034C4.757 63.093 4.739 63.149 4.724 63.209L4.721 63.222C4.705 63.282 4.691 63.34 4.679 63.398L4.674 63.422C4.663 63.478 4.652 63.533 4.643 63.588L4.636 63.622A6 6 0 0 0 4.597 63.948L4.594 63.982 4.585 64.105 4.584 64.138 4.58 64.242V64.267L4.579 64.353V64.433C4.058 66.092 4.276 67.625 5.229 68.988 9.498 75.097 27.109 75.974 28.406 76.032 29.188 76.392 29.966 76.573 30.718 76.573 31.229 76.573 31.595 76.486 31.769 76.433A3.9 3.9 0 0 0 33.504 76.816C34.342 76.816 35.031 76.588 35.302 76.484 35.839 76.783 36.464 76.935 37.161 76.935 38.118 76.935 38.943 76.65 39.251 76.529 39.964 76.961 40.869 77.179 41.943 77.179 42.743 77.179 43.381 77.054 43.568 77.013A9.5 9.5 0 0 0 45.323 77.2C46.504 77.2 47.041 76.871 47.264 76.659 48.069 76.89 48.797 77.009 49.429 77.009 50.265 77.009 50.728 76.805 50.928 76.686 51.669 76.872 52.332 76.966 52.901 76.964 53.915 76.964 54.418 76.67 54.643 76.468 55.186 76.708 55.784 76.829 56.425 76.829 57.298 76.829 57.998 76.605 58.244 76.514A5.1 5.1 0 0 0 59.877 76.759C60.791 76.759 61.566 76.573 61.811 76.508A5.6 5.6 0 0 0 63.498 76.752C64.31 76.752 64.956 76.607 65.174 76.552A4.5 4.5 0 0 0 66.507 76.737C67.306 76.737 68.01 76.579 68.265 76.516 68.588 76.668 69.051 76.746 69.64 76.746 70.363 76.746 71.068 76.631 71.295 76.592 71.638 76.723 72.062 76.787 72.56 76.787 73.304 76.787 73.998 76.642 74.215 76.592 74.806 76.766 75.405 76.852 75.997 76.852 76.795 76.852 77.356 76.692 77.558 76.624A5.7 5.7 0 0 0 78.87 76.783C79.716 76.783 80.303 76.578 80.516 76.491A5.4 5.4 0 0 0 81.668 76.613C82.65 76.613 83.417 76.361 83.661 76.271A7 7 0 0 0 85.275 76.478C86.208 76.478 86.783 76.244 87.003 76.133 87.379 76.216 87.756 76.259 88.126 76.259 89.502 76.259 90.426 75.683 90.727 75.466 90.905 75.504 91.084 75.523 91.259 75.523 92.276 75.523 92.917 74.896 93.117 74.668A0.6 0.6 0 0 0 93.402 74.479C93.919 73.891 93.81 72.011 93.779 71.61L93.814 67.508A2 2 0 0 0 93.909 67.239 3 3 0 0 0 93.969 66.986 3 3 0 0 0 93.998 66.782L93.999 66.775C94.005 66.706 94.008 66.64 94.008 66.574V66.534A4 4 0 0 0 93.995 66.35M92.846 74.191L92.776 74.287C92.77 74.293 92.223 75.017 91.256 75.017 91.084 75.017 90.904 74.996 90.727 74.95L90.602 74.918 90.501 75.001C90.492 75.009 89.59 75.754 88.123 75.756 87.762 75.756 87.393 75.71 87.021 75.621L86.917 75.598 86.828 75.655C86.823 75.658 86.304 75.973 85.272 75.973 84.783 75.973 84.254 75.903 83.701 75.764L83.62 75.745 83.542 75.777C83.534 75.779 82.73 76.109 81.664 76.109 81.278 76.109 80.901 76.066 80.544 75.982L80.456 75.961 80.376 76C80.371 76.003 79.793 76.279 78.868 76.279 78.453 76.279 78.029 76.224 77.607 76.116L77.527 76.097 77.451 76.126 77.39 76.146C77.363 76.154 77.329 76.167 77.288 76.177A5 5 0 0 1 75.996 76.347 5.8 5.8 0 0 1 74.295 76.088L74.228 76.068 74.16 76.085 74.103 76.098A7.3 7.3 0 0 1 72.558 76.284C72.093 76.284 71.709 76.222 71.418 76.098L71.347 76.067 71.271 76.083C71.263 76.084 70.447 76.243 69.638 76.243 69.085 76.243 68.663 76.168 68.417 76.028L68.324 75.975 68.221 76.004C68.213 76.005 67.41 76.233 66.504 76.233 66.029 76.233 65.609 76.171 65.26 76.05L65.184 76.024 65.108 76.047C65.1 76.049 64.401 76.248 63.495 76.248A5.1 5.1 0 0 1 61.893 76.007L61.82 75.98 61.744 76.001C61.734 76.004 60.885 76.252 59.878 76.252 59.293 76.252 58.772 76.17 58.328 76.008L58.234 75.972 58.144 76.011C58.136 76.013 57.388 76.323 56.425 76.323A3.8 3.8 0 0 1 54.695 75.934L54.494 75.842 54.37 76.024C54.368 76.026 54.223 76.233 53.754 76.358 53.542 76.418 53.262 76.459 52.9 76.459 52.345 76.459 51.689 76.362 50.945 76.168L50.818 76.14 50.72 76.217C50.716 76.22 50.354 76.502 49.429 76.502 48.805 76.502 48.073 76.376 47.253 76.128L47.063 76.062 46.964 76.241C46.961 76.245 46.648 76.695 45.322 76.695A9 9 0 0 1 43.611 76.507L43.557 76.498 43.504 76.51A7.4 7.4 0 0 1 41.942 76.674C40.909 76.674 40.058 76.459 39.412 76.033L39.296 75.957 39.169 76.015A5.5 5.5 0 0 1 37.159 76.429C36.506 76.429 35.931 76.282 35.451 75.989L35.337 75.919 35.216 75.975A4.6 4.6 0 0 1 33.502 76.313 3.4 3.4 0 0 1 31.904 75.938L31.8 75.886 31.693 75.927C31.689 75.93 31.326 76.071 30.715 76.071 30.022 76.071 29.301 75.897 28.57 75.555L28.524 75.534 28.473 75.532C28.29 75.522 9.836 74.707 5.642 68.701 4.777 67.462 4.585 66.065 5.073 64.549L5.086 64.506 5.084 64.46V64.378L5.085 64.308V64.291L5.089 64.18 5.095 64.065 5.096 64.048 5.107 63.916 5.109 63.902C5.113 63.853 5.12 63.804 5.126 63.754L5.127 63.749A3 3 0 0 1 5.153 63.59V63.587L5.186 63.43 5.189 63.415A3 3 0 0 1 5.293 63.082 1.6 1.6 0 0 1 5.435 62.81L5.445 62.795A1 1 0 0 1 5.532 62.689L5.541 62.681A0.7 0.7 0 0 1 5.646 62.593H5.647A0.5 0.5 0 0 1 5.767 62.531C5.77 62.53 5.772 62.528 5.775 62.528 6.073 63.083 7.253 64.507 11.822 66.05 14.598 66.989 18.014 67.603 21.786 68.076 23.648 68.334 25.739 68.561 28.078 68.742 29.193 68.846 30.324 68.946 31.463 69.047 34.534 69.318 37.666 69.453 41.037 69.453 47.648 69.453 53.881 68.938 59.908 68.44 63.728 68.125 67.335 67.826 70.838 67.676H70.87L77.094 67.451C77.803 67.428 78.49 67.408 79.153 67.389 81.069 67.331 82.782 67.281 84.299 67.215 89.408 67.119 92.45 66.506 93.119 65.432L93.128 65.414 93.142 65.435C93.164 65.468 93.187 65.502 93.208 65.539 93.21 65.546 93.213 65.549 93.217 65.555 93.239 65.596 93.265 65.639 93.286 65.684L93.302 65.717C93.322 65.758 93.338 65.797 93.355 65.838L93.369 65.869A2 2 0 0 1 93.434 66.06C93.446 66.105 93.455 66.152 93.465 66.2 93.468 66.214 93.471 66.226 93.473 66.242 93.485 66.301 93.491 66.359 93.496 66.42L93.498 66.457C93.501 66.508 93.501 66.561 93.5 66.616L93.498 66.665A1.7 1.7 0 0 1 93.429 67.077L93.412 67.133A2 2 0 0 1 93.331 67.352L93.31 67.401 93.273 71.628 93.275 71.638C93.337 72.488 93.302 73.827 93.021 74.148 92.99 74.183 92.972 74.185 92.964 74.185zM28.347 53.115C28.451 53.786 28.833 55.39 30.132 55.39H30.188C30.208 55.39 30.593 55.384 30.907 54.989 31.361 54.413 31.421 53.363 31.088 51.861L33.981 50.782C34.046 51.269 34.427 53.763 35.427 53.763A1 1 0 0 0 35.532 53.754C35.549 53.755 35.581 53.757 35.625 53.757 35.817 53.757 36.301 53.707 36.628 53.248 37.097 52.588 37.06 51.384 36.518 49.667L39.442 48.644 39.465 48.635 39.467 48.649C39.491 48.772 40.058 51.679 41.459 51.679 41.546 51.679 41.634 51.668 41.724 51.646A0.99 0.99 0 0 0 42.473 51.183C42.891 50.539 42.775 49.388 42.125 47.749L45.173 46.692V46.693C45.215 46.819 46.202 49.79 47.276 49.79A0.6 0.6 0 0 0 47.435 49.769H47.443C47.548 49.769 48.089 49.742 48.426 49.227 48.922 48.466 48.738 47.055 47.884 45.038L49.664 43.607C50.049 44.455 51.363 47.138 52.587 47.138 52.677 47.138 52.766 47.124 52.85 47.096 52.871 47.09 53.342 46.932 53.55 46.31 53.79 45.596 53.686 44.197 51.889 41.565L51.94 41.508C52.239 41.18 52.843 40.649 53.2 40.623L53.343 40.612C55.613 44.119 57.22 44.881 58.187 44.881 58.675 44.881 58.952 44.683 59.011 44.632A0.33 0.33 0 0 0 59.209 44.391C59.476 43.305 55.998 38.967 54.701 37.51A2 2 0 0 0 54.289 37.158C54.477 37.067 54.686 36.991 54.922 36.932L55.035 36.963C56.038 37.234 57.175 37.54 57.834 38.312L57.835 38.314C57.926 38.449 58.151 38.706 58.724 39.242 60.06 40.545 61.958 42.115 62.359 42.444 63.083 46.368 60.39 46.952 60.275 46.975L60.258 46.978 34.091 55.858C30.982 56.754 29.058 56.694 28.913 56.69L28.831 56.673C28.612 56.611 27.999 56.3 27.894 54.817H27.897L27.881 54.608C27.877 54.6 27.806 53.594 28.347 53.115M58.809 30.005L59.008 29.914 58.946 29.703C58.926 29.638 58.481 28.067 59.887 27.216L59.971 27.164 59.999 27.069C60.01 27.03 61.102 23.279 63.916 21.711L63.934 21.7C63.938 21.698 64.022 21.648 64.196 21.648 64.372 21.648 64.671 21.701 65.092 21.958L65.114 21.97C65.208 22.016 74.177 26.405 74.491 30.956 71.863 28.011 68.884 27.527 68.757 27.507A4.4 4.4 0 0 0 68.018 27.444C64.28 27.444 61.454 32.208 61.129 32.778A7 7 0 0 0 60.131 33.753C58.348 35.464 57.887 36.826 57.785 37.572 57.053 36.992 56.088 36.725 55.212 36.488 55.416 35.455 56.417 31.096 58.809 30.005M83.27 66.729L77.13 66.95C75.313 67.006 73.338 67.073 71.206 67.162 71.584 66.136 72.544 63.081 72.316 59.051 72.062 54.544 70.195 47.948 62.75 42.118A136 136 0 0 1 59.105 38.918 16 16 0 0 1 58.263 38.045C58.243 37.735 58.275 36.229 60.49 34.109L60.513 34.084C60.521 34.074 60.894 33.607 61.499 33.132 62.345 32.475 63.188 32.14 64.015 32.14 64.126 32.14 64.232 32.146 64.333 32.158 64.353 32.16 64.37 32.161 64.388 32.164L64.437 32.172A3.1 3.1 0 0 1 65.644 32.652C73.933 38.2 79.54 43.1 82.49 45.893A95 95 0 0 0 84.968 48.37C87.018 50.577 88.68 51.809 89.989 52.472 90.352 52.716 90.92 52.994 91.709 53.085 91.987 53.14 92.241 53.16 92.465 53.16 92.724 53.16 92.925 53.129 93.08 53.093 93.14 54.125 93.306 57.411 93.243 60.318A34 34 0 0 1 92.735 64.769L92.677 64.844 92.701 64.883C92.252 66.129 89.4 66.501 84.326 66.717 83.986 66.721 83.637 66.727 83.27 66.729M66.523 30.325A0.507 0.507 0 1 1 67.538 30.325 0.507 0.507 0 0 1 66.523 30.326M27.387 54.952C27.435 55.588 27.666 56.939 28.733 57.172 31.606 61.77 30.979 63.024 30.978 63.026L30.964 63.049C30.571 63.783 30.058 64.199 29.436 64.284 27.884 64.499 26.07 62.685 25.938 62.553 23.977 60.09 18.483 59.735 18.244 59.721 10.958 59.45 9.802 57.522 9.619 56.918 9.645 56.912 9.67 56.904 9.697 56.9 10.202 56.875 22.046 56.294 27.387 54.952" fill="#000000" data-fill-palette-color="accent"></path></g></svg></g></svg></g><g></g></svg></g></svg></g><g><path d="M91.51 63.204A122.216 122.216 0 0 1 304.01 63.204L299.917 63.204A118.123 118.123 0 0 0 95.603 63.204L91.51 63.204M91.51 183.996A122.216 122.216 0 0 0 304.01 183.996L299.917 183.996A118.123 118.123 0 0 1 95.603 183.996L91.51 183.996" fill="#000000" stroke="transparent" data-fill-palette-color="tertiary"></path></g></svg></g><defs></defs></svg><rect width="395.52" height="247.2" fill="none" stroke="none" visibility="hidden"></rect></g></svg></g></svg>