<svg xmlns="http://www.w3.org/2000/svg" xmlns:xlink="http://www.w3.org/1999/xlink" xmlns:svgjs="http://svgjs.dev/svgjs" version="1.1" viewBox="1.45 0 1495.28 277.63"><g transform="matrix(1,0,0,1,-0.9090909090909918,0.8129448783998043)"><svg xmlns="http://www.w3.org/2000/svg" xmlns:xlink="http://www.w3.org/1999/xlink" viewBox="0 0 396 73" data-background-color="#ffffff" preserveAspectRatio="xMidYMid meet" height="276" width="1500"><g id="tight-bounds" transform="matrix(1,0,0,1,0.2400000000000091,-0.2150180294318318)"><svg viewBox="0 0 395.52 73.43003605886366" height="73.43003605886366" width="395.52"><g><svg viewBox="0 0 395.52 73.43003605886366" height="73.43003605886366" width="395.52"><g><svg viewBox="0 0 395.52 73.43003605886366" height="73.43003605886366" width="395.52"><g id="textblocktransform"><svg viewBox="0 0 395.52 73.43003605886366" height="73.43003605886366" width="395.52" id="textblock"><g><svg viewBox="0 0 395.52 73.43003605886366" height="73.43003605886366" width="395.52"><g transform="matrix(1,0,0,1,0,0)"><svg width="395.52" viewBox="4 -36.01 250.5 46.51" height="73.43003605886366" data-palette-color="#000000"><path d="M26.49-14.99L9.5-14.99Q8.47-14.99 7.56-15.39 6.64-15.8 5.96-16.47 5.27-17.14 4.88-18.05 4.49-18.97 4.49-20L4.49-20 4.49-30Q4.49-31.03 4.88-31.95 5.27-32.86 5.96-33.53 6.64-34.2 7.56-34.61 8.47-35.01 9.5-35.01L9.5-35.01 26.49-35.01Q27.51-35.01 28.43-34.61 29.35-34.2 30.03-33.53 30.71-32.86 31.1-31.95 31.49-31.03 31.49-30L31.49-30 31.49-25.49 26.49-25.49 26.49-30 9.5-30 9.5-20 26.49-20Q27.51-20 28.43-19.6 29.35-19.21 30.03-18.53 30.71-17.85 31.1-16.93 31.49-16.02 31.49-14.99L31.49-14.99 31.49-5Q31.49-3.98 31.1-3.06 30.71-2.15 30.03-1.46 29.35-0.78 28.43-0.39 27.51 0 26.49 0L26.49 0 9.01 0Q7.98 0 7.07-0.39 6.15-0.78 5.47-1.46 4.79-2.15 4.39-3.06 4-3.98 4-5L4-5 4-9.5 9.01-9.5 9.01-5 26.49-5 26.49-14.99ZM63.01-21.19L63.01 0 58.2 0 58.2-21.19 44.8-21.19 44.8 0 40.01 0 40.01-36.01 44.8-36.01 44.8-21.41Q44.85-22.36 45.24-23.21 45.63-24.05 46.27-24.67 46.92-25.29 47.78-25.65 48.63-26 49.61-26L49.61-26 58.2-26Q59.2-26 60.08-25.62 60.96-25.24 61.61-24.6 62.25-23.95 62.63-23.07 63.01-22.19 63.01-21.19L63.01-21.19ZM93.5-21.19L93.5-4.81Q93.5-3.81 93.12-2.93 92.74-2.05 92.1-1.4 91.45-0.76 90.58-0.38 89.72 0 88.72 0L88.72 0 75.8 0Q74.82 0 73.95-0.38 73.07-0.76 72.42-1.4 71.77-2.05 71.39-2.93 71.02-3.81 71.02-4.81L71.02-4.81 71.02-21.19Q71.02-22.19 71.39-23.07 71.77-23.95 72.42-24.6 73.07-25.24 73.95-25.62 74.82-26 75.8-26L75.8-26 88.72-26Q89.72-26 90.58-25.62 91.45-25.24 92.1-24.6 92.74-23.95 93.12-23.07 93.5-22.19 93.5-21.19L93.5-21.19ZM88.72-21.19L75.8-21.19 75.8-4.81 88.72-4.81 88.72-21.19ZM123.5-21.19L123.5-10.55 106.29-10.55 106.29-4.81 123.5-4.81 123.5 0 106.29 0Q105.31 0 104.44-0.38 103.56-0.76 102.91-1.4 102.26-2.05 101.88-2.93 101.51-3.81 101.51-4.81L101.51-4.81 101.51-21.19Q101.51-22.19 101.88-23.07 102.26-23.95 102.91-24.6 103.56-25.24 104.44-25.62 105.31-26 106.29-26L106.29-26 118.69-26Q119.69-26 120.57-25.62 121.45-25.24 122.1-24.6 122.75-23.95 123.12-23.07 123.5-22.19 123.5-21.19L123.5-21.19ZM118.69-21.19L106.29-21.19 106.29-15.36 118.69-15.36 118.69-21.19ZM129.99-21.19L129.99-26 136.34-26 136.34-34.01 141.15-34.01 141.15-26 149.7-26 149.7-21.19 141.15-21.19 141.15-4.81 149.7-4.81 149.7 0 141.15 0Q140.18 0 139.3-0.38 138.42-0.76 137.76-1.4 137.1-2.05 136.72-2.93 136.34-3.81 136.34-4.81L136.34-4.81 136.34-21.19 129.99-21.19ZM180.19-21.19L180.19-4.81Q180.19-3.81 179.81-2.93 179.43-2.05 178.78-1.4 178.14-0.76 177.27-0.38 176.4 0 175.4 0L175.4 0 162.49 0Q161.51 0 160.63-0.38 159.75-0.76 159.11-1.4 158.46-2.05 158.08-2.93 157.7-3.81 157.7-4.81L157.7-4.81 157.7-21.19Q157.7-22.19 158.08-23.07 158.46-23.95 159.11-24.6 159.75-25.24 160.63-25.62 161.51-26 162.49-26L162.49-26 175.4-26Q176.4-26 177.27-25.62 178.14-25.24 178.78-24.6 179.43-23.95 179.81-23.07 180.19-22.19 180.19-21.19L180.19-21.19ZM175.4-21.19L162.49-21.19 162.49-4.81 175.4-4.81 175.4-21.19ZM211.19-21.19L211.19-4.81Q211.19-3.81 210.81-2.93 210.43-2.05 209.79-1.4 209.14-0.76 208.26-0.38 207.38 0 206.38 0L206.38 0 192.98 0 192.98 10.5 188.19 10.5 188.19-26 192.98-26 192.98-21.61Q193.05-22.53 193.47-23.33 193.88-24.12 194.52-24.72 195.15-25.32 195.99-25.66 196.84-26 197.79-26L197.79-26 206.38-26Q207.38-26 208.26-25.62 209.14-25.24 209.79-24.6 210.43-23.95 210.81-23.07 211.19-22.19 211.19-21.19L211.19-21.19ZM192.98-4.81L206.38-4.81 206.38-21.19 192.98-21.19 192.98-4.81ZM219.44-26L224.25-26 224.25 0 219.44 0 219.44-26ZM219.2-31.01L219.2-36.01 224.49-36.01 224.49-31.01 219.2-31.01ZM232.5-4.81L232.5-11.35Q232.5-12.35 232.88-13.22 233.26-14.09 233.9-14.75 234.55-15.41 235.43-15.78 236.31-16.16 237.28-16.16L237.28-16.16 249.69-16.16 249.69-21.19 233.99-21.19 233.99-26 249.69-26Q250.69-26 251.57-25.62 252.45-25.24 253.09-24.6 253.74-23.95 254.12-23.07 254.5-22.19 254.5-21.19L254.5-21.19 254.5 0 249.69 0 249.69-4.39Q249.61-3.49 249.2-2.69 248.78-1.88 248.14-1.28 247.49-0.68 246.66-0.34 245.83 0 244.9 0L244.9 0 237.28 0Q236.31 0 235.43-0.38 234.55-0.76 233.9-1.4 233.26-2.05 232.88-2.93 232.5-3.81 232.5-4.81L232.5-4.81ZM237.28-11.35L237.28-4.81 249.69-4.81 249.69-11.35 237.28-11.35Z" opacity="1" transform="matrix(1,0,0,1,0,0)" fill="#000000" class="wordmark-text-0" data-fill-palette-color="primary" id="text-0"/></svg></g></svg></g></svg></g></svg></g><g/></svg></g><defs/></svg><rect width="395.52" height="73.43003605886366" fill="none" stroke="none" visibility="hidden"/></g></svg></g></svg>